<svg width="86" height="23" viewBox="0 0 86 23" fill="none" xmlns="http://www.w3.org/2000/svg">
<path d="M16.707 9.41016C16.707 10.6836 16.5547 11.8516 16.25 12.9141C15.9531 13.9688 15.4922 14.8828 14.8672 15.6562C14.2422 16.4297 13.4492 17.0352 12.4883 17.4727L16.6133 22.0781H11.9609L8.82031 18.2344C8.76562 18.2344 8.71875 18.2344 8.67969 18.2344C8.64062 18.2344 8.59766 18.2344 8.55078 18.2344C7.15234 18.2344 5.94141 18.0273 4.91797 17.6133C3.89453 17.1914 3.04688 16.5898 2.375 15.8086C1.71094 15.0273 1.21484 14.0938 0.886719 13.0078C0.558594 11.9219 0.394531 10.7148 0.394531 9.38672C0.394531 7.61328 0.683594 6.07031 1.26172 4.75781C1.84766 3.4375 2.74609 2.41406 3.95703 1.6875C5.16797 0.960938 6.70703 0.597656 8.57422 0.597656C10.4336 0.597656 11.9609 0.960938 13.1562 1.6875C14.3594 2.41406 15.25 3.4375 15.8281 4.75781C16.4141 6.07812 16.707 7.62891 16.707 9.41016ZM4.20312 9.41016C4.20312 10.6055 4.35156 11.6367 4.64844 12.5039C4.95312 13.3633 5.42578 14.0273 6.06641 14.4961C6.70703 14.957 7.53516 15.1875 8.55078 15.1875C9.58203 15.1875 10.418 14.957 11.0586 14.4961C11.6992 14.0273 12.1641 13.3633 12.4531 12.5039C12.75 11.6367 12.8984 10.6055 12.8984 9.41016C12.8984 7.61328 12.5625 6.19922 11.8906 5.16797C11.2188 4.13672 10.1133 3.62109 8.57422 3.62109C7.55078 3.62109 6.71484 3.85547 6.06641 4.32422C5.42578 4.78516 4.95312 5.44922 4.64844 6.31641C4.35156 7.17578 4.20312 8.20703 4.20312 9.41016ZM41.5447 0.867188L37.1853 18H33.0486L30.7283 9C30.6814 8.82812 30.6189 8.56641 30.5408 8.21484C30.4627 7.86328 30.3806 7.48047 30.2947 7.06641C30.2087 6.64453 30.1306 6.25 30.0603 5.88281C29.9978 5.50781 29.9548 5.21094 29.9314 4.99219C29.908 5.21094 29.8611 5.50391 29.7908 5.87109C29.7283 6.23828 29.6541 6.62891 29.5681 7.04297C29.49 7.45703 29.4119 7.84375 29.3337 8.20312C29.2556 8.5625 29.1931 8.83594 29.1462 9.02344L26.8377 18H22.7127L18.3416 0.867188H21.9158L24.1072 10.2188C24.1697 10.5 24.24 10.8359 24.3181 11.2266C24.4041 11.6172 24.4861 12.0273 24.5642 12.457C24.6502 12.8789 24.7244 13.2891 24.7869 13.6875C24.8572 14.0781 24.908 14.418 24.9392 14.707C24.9783 14.4102 25.0291 14.0664 25.0916 13.6758C25.1541 13.2773 25.2205 12.875 25.2908 12.4688C25.3689 12.0547 25.447 11.6719 25.5252 11.3203C25.6033 10.9688 25.6736 10.6836 25.7361 10.4648L28.2322 0.867188H31.6658L34.1619 10.4648C34.2166 10.6758 34.2791 10.9609 34.3494 11.3203C34.4275 11.6719 34.5056 12.0547 34.5837 12.4688C34.6619 12.8828 34.7322 13.2891 34.7947 13.6875C34.865 14.0781 34.9158 14.418 34.947 14.707C35.0017 14.3164 35.0759 13.8438 35.1697 13.2891C35.2712 12.7266 35.3767 12.168 35.4861 11.6133C35.6033 11.0586 35.7048 10.5938 35.7908 10.2188L37.9705 0.867188H41.5447ZM53.8081 18H43.9409V0.867188H53.8081V3.84375H47.5737V7.60547H53.3745V10.582H47.5737V15H53.8081V18ZM62.6263 0.867188C64.1809 0.867188 65.4622 1.05469 66.47 1.42969C67.4856 1.80469 68.2395 2.37109 68.7317 3.12891C69.2239 3.88672 69.47 4.84375 69.47 6C69.47 6.78125 69.3216 7.46484 69.0247 8.05078C68.7278 8.63672 68.3372 9.13281 67.8528 9.53906C67.3684 9.94531 66.845 10.2773 66.2825 10.5352L71.3216 18H67.2903L63.2005 11.4258H61.2669V18H57.6341V0.867188H62.6263ZM62.3684 3.84375H61.2669V8.47266H62.4388C63.6419 8.47266 64.5013 8.27344 65.0169 7.875C65.5403 7.46875 65.802 6.875 65.802 6.09375C65.802 5.28125 65.5208 4.70312 64.9583 4.35938C64.4036 4.01562 63.5403 3.84375 62.3684 3.84375ZM71.5616 4.89844H75.4756L77.9483 12.2695C78.0264 12.5039 78.0928 12.7422 78.1475 12.9844C78.2022 13.2266 78.2491 13.4766 78.2881 13.7344C78.3272 13.9922 78.3584 14.2617 78.3819 14.543H78.4522C78.4991 14.1211 78.5616 13.7266 78.6397 13.3594C78.7256 12.9922 78.8311 12.6289 78.9561 12.2695L81.3819 4.89844H85.2139L79.6709 19.6758C79.335 20.582 78.8975 21.3359 78.3584 21.9375C77.8194 22.5469 77.1983 23.0039 76.4952 23.3086C75.7998 23.6133 75.0342 23.7656 74.1983 23.7656C73.792 23.7656 73.4405 23.7422 73.1436 23.6953C72.8467 23.6562 72.5928 23.6133 72.3819 23.5664V20.7305C72.5459 20.7695 72.753 20.8047 73.003 20.8359C73.253 20.8672 73.5147 20.8828 73.7881 20.8828C74.2881 20.8828 74.7178 20.7773 75.0772 20.5664C75.4366 20.3555 75.7373 20.0703 75.9795 19.7109C76.2217 19.3594 76.4131 18.9727 76.5537 18.5508L76.7647 17.9062L71.5616 4.89844Z" fill="white"/>
</svg>
